<?xml version="1.0" encoding="UTF-8"?>
<svg id="Layer_1_copy" xmlns="http://www.w3.org/2000/svg" version="1.1" viewBox="0 0 534 534">
  <!-- Generator: Adobe Illustrator 30.2.1, SVG Export Plug-In . SVG Version: 2.1.1 Build 1)  -->
  <defs>
    <style>
      .st0 {
        fill: #502aff;
      }

      .st1 {
        stroke: #000;
        stroke-miterlimit: 10;
        stroke-width: 20.49px;
      }

      .st1, .st2 {
        fill: #ec2024;
      }
    </style>
  </defs>
  <path class="st2" d="M266.203,12.73L34.41,90.748v167.804c0,53.835,19.42,106.338,55.899,148.389,53.276,61.423,114.888,102.014,181.203,115.329,64.049-15.649,123.457-56.827,174.854-117.534,35.315-41.679,54.037-93.309,54.037-146.198V89.488L266.203,12.73ZM481.418,259.239c0,48.594-17.2,96-49.643,134.3-47.222,55.768-101.786,93.609-160.604,107.97-60.913-12.213-117.511-49.525-166.456-105.937-33.499-38.615-51.351-86.823-51.351-136.305V105.137l212.933-71.66,215.122,70.501v155.261h0Z"/>
  <path d="M481.418,103.992v155.261c0,48.594-17.2,96-49.643,134.3-47.222,55.768-101.786,93.609-160.604,107.97-60.913-12.213-117.511-49.525-166.456-105.937-33.499-38.615-51.351-86.823-51.351-136.305V105.151l212.933-71.675,215.122,70.501v.014Z"/>
  <path class="st0" d="M464.622,217.918c-18.302-60.378-63.956-93.838-78.889-103.846-20.289-13.616-62.978-35.279-120.305-35.236-2.841,0-18.799.243-40.702,4.567l-.248-.344c-.295.186-.59.372-.885.558-39.584,8.004-97.859,29.323-133.687,86.078-41.975,66.463-33.329,150.136,13.8,209.554,47.191,59.49,126.034,85.921,199.195,74.18,7.172-1.174,105.9-18.642,149.877-105.708,6.722-13.358,31.186-65.933,11.829-129.819l.016.014ZM275.502,92.867c14.996,2.262,27.538,7.073,35.967,8.777,12.481,12.571,26.017,33.203,38.575,59.104l-74.543-.2v-67.68ZM214.821,106.368c2.173-1.375,5.511-3.093,8.584-4.768,2.282-1.246,18.706-9.879,40.159-9.736v68.625l-81.559-.229c.745-1.546,1.506-3.121,2.297-4.753,10.525-21.749,20.506-37.856,30.519-49.153v.014ZM263.58,171.5v87.553h-102.671c-.186-18.04.574-45.115,11.72-76.571,1.459-4.124,2.903-7.76,4.378-11.225l86.589.243h-.016ZM263.58,270.063v88.011h-84.788c-2.328-5.24-4.409-10.509-6.147-15.721-9.919-29.895-11.192-54.722-11.565-72.29h102.5ZM263.58,369.07v74.81c-18.876-.487-33.096-8.519-35.145-9.722-.016,0-.031-.014-.047-.029-13.8-16.236-31.466-40.018-44.319-65.06h79.51ZM316.514,429.806c-8.445,1.575-23.828,10.667-41.028,13.315v-74.051h78.082c-10.494,23.596-24.263,44.743-37.07,60.736h.016ZM275.502,358.074v-88.011h98.014v.472c-.295,17.697-.761,44.457-11.658,77.316-1.149,3.436-2.375,6.844-3.679,10.223h-82.677ZM275.502,259.067v-87.524l79.79.215c2.297,5.011,4.424,10.08,6.597,16.222,10.059,28.406,11.642,53.233,11.736,71.073h-98.107l-.015.014ZM373.205,184.572c-1.661-4.711-3.322-8.848-5.03-12.771l62.093.172c12.558,17.439,22.866,38.529,27.849,63.757.31,1.589,1.878,10.266,2.22,23.338h-74.807c-.078-18.556-1.723-44.514-12.325-74.495ZM421.654,160.933l-58.538-.157c-.667-1.403-1.351-2.806-2.049-4.252-7.141-14.747-19.327-37.469-33.98-54.837,1.351-1.088,2.515-1.976,3.493-2.692,3.058.988,6.132,2.033,9.205,3.193,4.626,1.747,48.2,18.971,81.87,58.746ZM166.233,115.174c5.092-2.835,17.448-9.435,33.53-14.833,1.63-.544,3.337-1.088,5.061-1.604.202.315.357.616.497.916-10.618,12.041-20.941,28.736-31.9,51.372-1.537,3.164-2.98,6.171-4.393,9.206l-57.421-.157c20.584-24.612,44.226-39.087,54.642-44.9h-.016ZM97.217,180.09c1.909-3.121,3.896-6.128,5.945-9.02l61.084.172c-.993,2.463-1.971,5.054-2.965,7.846-11.705,33.06-12.496,61.237-12.31,79.993h-74.512c.621-24.469,6.38-52.088,22.757-78.977v-.014ZM74.506,270.063h74.636c.373,17.511,1.708,44.199,12.093,75.512,1.382,4.152,2.965,8.333,4.719,12.499h-65.57c-3.958-6.228-7.7-13.015-11.068-20.36-1.351-2.964-13.49-30.626-14.809-67.651h0ZM107.99,369.07h62.962c11.705,24.039,28.02,47.206,41.975,64.501-.14.2-.279.387-.404.587-.931,1.489-.869,2.305-1.925,3.579-32.94-9.192-54.44-23.71-60.153-27.705-10.137-7.073-27.073-20.388-42.472-40.963h.016ZM335.841,434.144c-2.484.859-4.952,1.647-7.389,2.391-.435-.372-.916-.816-1.475-1.303,13.8-17.453,28.563-40.548,39.429-66.162h60.991c-3.26,4.439-6.799,8.834-10.711,13.158-5.262,5.827-32.645,35.308-80.861,51.93l.016-.014ZM434.46,358.632v-.558h-63.677c.854-2.319,1.676-4.653,2.453-7.001,11.394-34.348,11.891-63.156,12.186-80.365v-.644h74.869c-.745,23.839-6.132,56.813-25.846,88.569h.015Z"/>
  <g>
    <path class="st1" d="M401.615,141.169c-11.456,15.048-25.289,30.989-36.745,46.037-.605.745-1.583,1.732-3.043,2.506-3.741,1.99-7.684,1.017-8.6.759-59.035-.1-102.066.172-112.171.057-2.282-.029-8.941-.143-14.716,3.694-1.863,1.231-3.524,2.821-4.967,4.839-5.914,8.261-2.763,19.615,7.777,23.839,12.977,5.197,26.576,9.034,39.941,13.387,22.711,7.388,45.607,14.318,68.116,22.178,37.939,13.258,51.972,45.101,44.645,81.969-6.116,30.783-36.961,53.434-73.115,53.649-56.256.329-112.497.129-168.754.143-1.552,0-3.105-.215-6.396-.444,11.891-15.964,23.068-30.926,34.198-45.917,2.794-3.751,6.985-2.878,10.835-2.878,36.061-.043,72.137,0,108.197,0,4.3,0,8.6.086,12.9-.057,13.692-.472,19.73-4.582,21.469-14.447,1.739-9.793-2.841-16.551-15.089-20.618-24.216-8.047-48.572-15.735-72.866-23.567-9.966-3.221-19.963-6.328-29.851-9.736-24.791-8.562-41.106-24.226-45.514-48.738-5.03-27.963,3.384-51.873,27.538-70.228,4.533-3.436,9.329-6.314,14.344-8.634,15.011-6.958,29.044-7.531,35.967-7.746,20.413-.601,165.899-.049,165.899-.049Z"/>
    <path class="st2" d="M366.856,187.206c-3.089,4.109-7.482,3.25-11.642,3.264-37.396.072-74.776.143-112.171.057-8.165-.014-15.058,2.09-19.668,8.519-5.914,8.261-2.763,19.615,7.777,23.839,12.977,5.197,26.576,9.034,39.941,13.387,22.711,7.388,45.607,14.318,68.116,22.178,37.939,13.258,51.972,45.101,44.645,81.969-6.116,30.783-36.961,53.434-73.115,53.649-56.256.329-112.497.129-168.754.143-1.552,0-3.105-.215-6.396-.444,11.891-15.964,23.068-30.926,34.198-45.917,2.794-3.751,6.985-2.878,10.835-2.878,36.061-.043,72.137,0,108.197,0,4.3,0,8.6.086,12.9-.057,13.692-.472,19.715-4.582,21.469-14.447,1.739-9.793-2.841-16.551-15.089-20.618-24.216-8.047-48.572-15.735-72.866-23.567-9.966-3.221-19.963-6.328-29.851-9.736-24.791-8.562-41.106-24.226-45.514-48.738-5.03-27.963,3.384-51.873,27.538-70.228,14.561-11.068,31.854-16.222,50.311-16.379,52.934-.458,161.025-.65,163.897-.035,0,0-23.69,31.304-34.758,46.037Z"/>
  </g>
  <path class="st2" d="M266.203,12.73L34.41,90.748v167.804c0,53.835,19.42,106.338,55.899,148.389,53.276,61.423,114.888,102.014,181.203,115.329,64.049-15.649,123.457-56.827,174.854-117.534,35.315-41.679,54.037-93.309,54.037-146.198V89.488L266.203,12.73ZM481.418,259.239c0,48.594-17.2,96-49.643,134.3-47.222,55.768-101.786,93.609-160.604,107.97-60.913-12.213-117.511-49.525-166.456-105.937-33.499-38.615-51.351-86.823-51.351-136.305V105.137l212.933-71.66,215.122,70.501v155.261h0Z"/>
</svg>