<?xml version="1.0" encoding="UTF-8"?>
<svg id="Layer_1_copy_2" xmlns="http://www.w3.org/2000/svg" version="1.1" viewBox="0 0 1065 369">
  <defs>
    <style>
      .st0 { fill: #502aff; }
      .st1 { stroke: #000; stroke-miterlimit: 10; stroke-width: 20.49px; fill: #ec2024; }
      .st2 { fill: #ec2024; }
      .st-white { fill: #ffffff; }
    </style>
  </defs>
  <g>
    <g class="st-white">
      <path d="M504.11,109.356l-17.049,15.49c-6.926-6.27-13.216-9.407-18.86-9.407-3.102,0-5.526.592-7.272,1.782-1.752,1.189-2.621,2.674-2.621,4.432,0,1.344.555,2.584,1.671,3.717,1.104,1.126,3.849,2.663,8.222,4.61l10.096,4.58c10.627,4.753,17.929,9.607,21.895,14.546,3.978,4.939,5.952,10.733,5.952,17.368,0,8.855-3.584,16.231-10.751,22.149-7.167,5.918-16.776,8.878-28.827,8.878-16.031,0-28.81-5.668-38.369-17.003l16.936-16.72c3.226,3.403,7,6.181,11.337,8.285,4.335,2.106,8.184,3.141,11.539,3.141,3.633,0,6.551-.784,8.778-2.379,2.219-1.582,3.33-3.402,3.33-5.486,0-3.836-3.997-7.591-11.99-11.245l-9.264-4.223c-17.726-8.104-26.594-18.262-26.594-30.469,0-7.865,3.349-14.591,10.047-20.173,6.691-5.577,15.252-8.372,25.676-8.372,7.136,0,13.834,1.423,20.131,4.262,6.285,2.84,11.621,6.921,15.988,12.235Z"/>
      <path d="M609.108,95.318h27.606v136.193h-27.606v-47.097c-5.378,4.643-10.77,7.989-16.185,10.016-5.415,2.048-11.275,3.072-17.597,3.072-14.185,0-26.446-4.985-36.802-14.956-10.362-9.97-15.53-22.365-15.53-37.195,0-15.354,5.002-27.941,15.03-37.77,10.017-9.811,22.179-14.722,36.501-14.722,6.581,0,12.773,1.121,18.545,3.352,5.785,2.225,11.127,5.571,16.037,10.044v-10.937ZM580.157,115.73c-8.53,0-15.617,2.738-21.255,8.206-5.642,5.48-8.462,12.498-8.462,21.073s2.875,15.707,8.611,21.261c5.742,5.578,12.803,8.354,21.204,8.354,8.671,0,15.851-2.731,21.549-8.206,5.699-5.474,8.562-12.644,8.562-21.511,0-8.684-2.862-15.718-8.562-21.101-5.698-5.383-12.927-8.076-21.648-8.076Z"/>
      <path d="M664.456,95.318h27.927v47.95c0,9.345.704,15.81,2.122,19.452,1.419,3.619,3.701,6.442,6.846,8.467,3.121,2.003,6.981,3.016,11.583,3.016s8.487-.989,11.694-2.971c3.194-1.992,5.575-4.894,7.142-8.752,1.134-2.858,1.714-8.992,1.714-18.382v-48.781h27.595v42.214c0,17.391-1.517,29.285-4.527,35.705-3.712,7.819-9.165,13.818-16.393,17.983-7.205,4.188-16.369,6.282-27.483,6.282-12.064,0-21.822-2.435-29.259-7.33-7.451-4.882-12.681-11.677-15.716-20.418-2.159-6.033-3.244-17.028-3.244-32.956v-41.48Z"/>
      <path d="M869.901,95.318h27.607v99.726h-27.607v-10.585c-5.377,4.621-10.781,7.944-16.183,9.993-5.428,2.026-11.287,3.05-17.603,3.05-14.185,0-26.459-4.985-36.808-14.956-10.35-9.97-15.53-22.365-15.53-37.195,0-15.354,5.008-27.941,15.036-37.77,10.004-9.811,22.167-14.722,36.488-14.722,6.599,0,12.779,1.121,18.552,3.352,5.798,2.225,11.14,5.571,16.048,10.044v-10.937ZM840.926,115.73c-8.511,0-15.592,2.738-21.23,8.206-5.649,5.48-8.462,12.498-8.462,21.073s2.862,15.707,8.598,21.261c5.747,5.578,12.816,8.354,21.204,8.354,8.659,0,15.851-2.731,21.549-8.206,5.712-5.474,8.573-12.644,8.573-21.511,0-8.684-2.861-15.718-8.573-21.101-5.698-5.383-12.914-8.076-21.66-8.076Z"/>
      <path d="M1006.491,56.967h27.619v138.078h-27.619v-10.585c-5.366,4.621-10.756,7.944-16.172,9.993-5.402,2.026-11.274,3.05-17.589,3.05-14.186,0-26.46-4.985-36.809-14.956-10.349-9.97-15.53-22.365-15.53-37.195,0-15.354,5.008-27.941,15.025-37.77,10.015-9.811,22.191-14.722,36.5-14.722,6.587,0,12.768,1.121,18.553,3.364,5.785,2.237,11.126,5.589,16.023,10.073v-49.329ZM977.552,115.73c-8.536,0-15.616,2.738-21.254,8.206-5.65,5.48-8.462,12.498-8.462,21.073s2.874,15.707,8.61,21.261c5.748,5.578,12.816,8.354,21.192,8.354,8.673,0,15.851-2.731,21.55-8.206,5.711-5.474,8.573-12.644,8.573-21.511,0-8.684-2.862-15.718-8.573-21.101-5.699-5.383-12.916-8.076-21.636-8.076Z"/>
    </g>
    <g class="st-white">
      <path d="M477.393,290.375c-3.09,1.023-9.191,2.705-16.402,2.705-8.082,0-14.738-1.901-19.968-6.508-4.597-4.095-7.448-10.676-7.448-18.353.078-14.697,11.014-25.446,28.922-25.446,6.181,0,11.014,1.243,13.312,2.267l-1.664,5.191c-2.854-1.17-6.419-2.12-11.807-2.12-12.996,0-21.475,7.458-21.475,19.815,0,12.504,8.162,19.889,20.603,19.889,4.517,0,7.606-.585,9.192-1.316v-14.696h-10.856v-5.119h17.591v23.691Z"/>
      <path d="M554.898,243.285h6.895v43.945h22.82v5.338h-29.715v-49.283Z"/>
      <path d="M701.817,267.415c0,16.964-11.173,25.958-24.802,25.958-14.104,0-24.01-10.091-24.01-25.008,0-15.647,10.539-25.884,24.802-25.884,14.58,0,24.01,10.31,24.01,24.934ZM660.375,268.22c0,10.529,6.181,19.962,17.036,19.962,10.936,0,17.116-9.287,17.116-20.475,0-9.798-5.547-20.034-17.036-20.034-11.411,0-17.116,9.725-17.116,20.547Z"/>
      <path d="M777.739,243.943c3.011-.585,7.765-1.023,12.599-1.023,6.894,0,11.331,1.097,14.659,3.583,2.773,1.901,4.438,4.825,4.438,8.701,0,4.753-3.407,8.921-9.033,10.821v.146c5.071,1.17,11.014,5.045,11.014,12.357,0,4.241-1.822,7.458-4.517,9.871-3.724,3.145-9.746,4.606-18.462,4.606-4.755,0-8.399-.292-10.697-.585v-48.479ZM784.633,264.125h6.26c7.29,0,11.569-3.51,11.569-8.263,0-5.776-4.755-8.044-11.728-8.044-3.17,0-4.992.22-6.102.439v15.867ZM784.633,287.742c1.347.22,3.328.293,5.784.293,7.132,0,13.709-2.413,13.709-9.579,0-6.727-6.261-9.506-13.788-9.506h-5.705v18.792Z"/>
      <path d="M896.29,277.066l-5.547,15.502h-7.131l18.146-49.283h8.319l18.226,49.283h-7.369l-5.705-15.502h-18.938ZM913.802,272.095l-5.229-14.186c-1.188-3.217-1.981-6.142-2.773-8.993h-.158c-.793,2.925-1.664,5.922-2.694,8.92l-5.229,14.259h16.085Z"/>
      <path d="M1003.114,243.285h6.894v43.945h22.82v5.338h-29.714v-49.283Z"/>
    </g>
  </g>
  <g>
    <path class="st2" d="M189.584,10.349L31.139,63.679v114.704c0,36.799,13.274,72.688,38.211,101.433,36.417,41.986,78.533,69.733,123.863,78.835,43.781-10.697,84.39-38.845,119.524-80.342,24.14-28.49,36.937-63.782,36.937-99.935V62.818L189.584,10.349ZM336.697,178.853c0,33.217-11.757,65.622-33.934,91.802-32.279,38.121-69.577,63.988-109.783,73.804-41.638-8.348-80.326-33.853-113.783-72.414-22.899-26.396-35.102-59.349-35.102-93.173v-105.357L189.648,24.531l147.049,48.191v106.131h0Z"/>
    <path d="M336.697,72.732v106.131c0,33.217-11.757,65.622-33.934,91.802-32.279,38.121-69.577,63.988-109.783,73.804-41.638-8.348-80.326-33.853-113.783-72.414-22.899-26.396-35.102-59.349-35.102-93.173v-105.357L189.648,24.531l147.049,48.191v.01Z"/>
    <path class="st0" d="M325.215,150.607c-12.511-41.272-43.718-64.144-53.926-70.985-13.869-9.307-43.049-24.115-82.236-24.086-1.942,0-12.85.166-27.822,3.122l-.17-.235c-.202.127-.403.254-.605.382-27.058,5.471-66.892,20.044-91.383,58.84-28.692,45.431-22.782,102.627,9.433,143.243,32.258,40.665,86.152,58.732,136.162,50.707,4.902-.803,72.389-12.743,102.45-72.258,4.595-9.131,21.318-45.069,8.086-88.739l.011.01ZM195.94,65.128c10.25,1.546,18.824,4.835,24.586,5.999,8.531,8.593,17.784,22.696,26.369,40.401l-50.955-.137v-46.263ZM154.461,74.357c1.486-.94,3.767-2.114,5.868-3.259,1.56-.851,12.786-6.753,27.451-6.655v46.909l-55.751-.157c.509-1.057,1.029-2.134,1.57-3.249,7.194-14.867,14.017-25.877,20.861-33.599v.01ZM187.791,118.878v59.848h-70.182c-.127-12.332.393-30.839,8.011-52.341.997-2.819,1.984-5.305,2.992-7.673l59.189.166h-.011ZM187.791,186.252v60.161h-57.958c-1.592-3.582-3.014-7.184-4.202-10.746-6.78-20.435-7.651-37.406-7.905-49.415h70.065ZM187.791,253.929v51.137c-12.903-.333-22.623-5.823-24.024-6.645-.011,0-.021-.01-.032-.02-9.433-11.098-21.509-27.355-30.295-44.472h54.35ZM223.975,295.446c-5.772,1.077-16.288,7.291-28.045,9.102v-50.619h53.374c-7.173,16.129-16.585,30.584-25.339,41.517h.011ZM195.94,246.413v-60.161h66.999v.323c-.202,12.097-.52,30.389-7.969,52.85-.785,2.349-1.623,4.678-2.515,6.988h-56.515ZM195.94,178.735v-59.828l54.541.147c1.57,3.425,3.024,6.89,4.51,11.089,6.876,19.417,7.958,36.388,8.022,48.583h-67.062l-.011.01ZM262.726,127.813c-1.135-3.22-2.271-6.048-3.438-8.73l42.444.117c8.584,11.921,15.63,26.337,19.036,43.582.212,1.086,1.284,7.017,1.517,15.953h-51.135c-.053-12.684-1.178-30.428-8.425-50.922ZM295.844,111.655l-40.014-.108c-.456-.959-.923-1.918-1.401-2.907-4.881-10.081-13.211-25.613-23.228-37.484.923-.744,1.719-1.351,2.387-1.84,2.09.675,4.191,1.39,6.292,2.183,3.162,1.194,32.947,12.968,55.963,40.156ZM121.249,80.376c3.48-1.938,11.927-6.45,22.92-10.139,1.114-.372,2.281-.744,3.459-1.096.138.215.244.421.34.626-7.258,8.231-14.314,19.643-21.806,35.116-1.051,2.163-2.037,4.218-3.003,6.293l-39.251-.108c14.07-16.824,30.231-26.719,37.351-30.692h-.011ZM74.072,124.75c1.305-2.134,2.663-4.189,4.064-6.166l41.755.117c-.679,1.683-1.348,3.455-2.027,5.363-8.001,22.598-8.542,41.859-8.415,54.68h-50.933c.424-16.726,4.361-35.605,15.556-53.985v-.01ZM58.547,186.252h51.018c.255,11.97,1.167,30.213,8.266,51.617.944,2.838,2.027,5.696,3.226,8.544h-44.821c-2.706-4.257-5.263-8.896-7.566-13.917-.923-2.026-9.221-20.934-10.123-46.244h0ZM81.436,253.929h43.039c8.001,16.432,19.153,32.268,28.692,44.091-.095.137-.191.264-.276.401-.637,1.018-.594,1.576-1.316,2.447-22.517-6.283-37.213-16.207-41.118-18.938-6.929-4.835-18.506-13.937-29.032-28.001h.011ZM237.186,298.411c-1.698.587-3.385,1.126-5.051,1.634-.297-.254-.626-.558-1.008-.891,9.433-11.93,19.524-27.717,26.952-45.226h41.691c-2.228,3.034-4.648,6.039-7.322,8.994-3.597,3.983-22.315,24.135-55.273,35.498l.011-.01ZM304.598,246.794v-.382h-43.527c.584-1.585,1.146-3.181,1.677-4.786,7.789-23.479,8.128-43.171,8.33-54.935v-.44h51.177c-.509,16.295-4.191,38.835-17.667,60.543h.011Z"/>
    <g>
      <path class="st1" d="M282.146,98.145c-7.831,10.286-17.287,21.183-25.118,31.469-.414.509-1.082,1.184-2.08,1.713-2.557,1.36-5.253.695-5.879.519-40.354-.069-69.768.117-76.676.039-1.56-.02-6.112-.098-10.059,2.525-1.273.842-2.409,1.928-3.396,3.308-4.043,5.647-1.889,13.408,5.316,16.295,8.871,3.553,18.166,6.176,27.302,9.151,15.524,5.05,31.175,9.787,46.562,15.16,25.934,9.063,35.526,30.829,30.518,56.031-4.181,21.042-25.265,36.525-49.978,36.672-38.455.225-76.899.088-115.353.098-1.061,0-2.122-.147-4.372-.303,8.128-10.913,15.768-21.14,23.376-31.387,1.91-2.564,4.775-1.967,7.407-1.967,24.65-.029,49.31,0,73.959,0,2.939,0,5.879.059,8.818-.039,9.359-.323,13.487-3.132,14.675-9.875,1.188-6.694-1.942-11.314-10.314-14.093-16.553-5.5-33.202-10.756-49.809-16.109-6.812-2.202-13.646-4.326-20.405-6.655-16.946-5.853-28.098-16.56-31.112-33.315-3.438-19.114,2.313-35.458,18.824-48.005,3.098-2.349,6.377-4.316,9.805-5.902,10.261-4.757,19.853-5.148,24.586-5.295,13.954-.411,113.402-.033,113.402-.033Z"/>
      <path class="st2" d="M258.387,129.614c-2.112,2.809-5.115,2.222-7.958,2.231-25.562.049-51.114.098-76.676.039-5.581-.01-10.293,1.429-13.444,5.823-4.043,5.647-1.889,13.408,5.316,16.295,8.871,3.553,18.166,6.176,27.302,9.151,15.524,5.05,31.175,9.787,46.562,15.16,25.934,9.063,35.526,30.829,30.518,56.031-4.181,21.042-25.265,36.525-49.978,36.672-38.455.225-76.899.088-115.353.098-1.061,0-2.122-.147-4.372-.303,8.128-10.913,15.768-21.14,23.376-31.387,1.91-2.564,4.775-1.967,7.407-1.967,24.65-.029,49.31,0,73.959,0,2.939,0,5.879.059,8.818-.039,9.359-.323,13.476-3.132,14.675-9.875,1.188-6.694-1.942-11.314-10.314-14.093-16.553-5.5-33.202-10.756-49.809-16.109-6.812-2.202-13.646-4.326-20.405-6.655-16.946-5.853-28.098-16.56-31.112-33.315-3.438-19.114,2.313-35.458,18.824-48.005,9.953-7.565,21.774-11.089,34.391-11.196,36.184-.313,110.07-.444,112.033-.024,0,0-16.194,21.398-23.759,31.469Z"/>
    </g>
    <path class="st2" d="M189.584,10.349L31.139,63.679v114.704c0,36.799,13.274,72.688,38.211,101.433,36.417,41.986,78.533,69.733,123.863,78.835,43.781-10.697,84.39-38.845,119.524-80.342,24.14-28.49,36.937-63.782,36.937-99.935V62.818L189.584,10.349ZM336.697,178.853c0,33.217-11.757,65.622-33.934,91.802-32.279,38.121-69.577,63.988-109.783,73.804-41.638-8.348-80.326-33.853-113.783-72.414-22.899-26.396-35.102-59.349-35.102-93.173v-105.357L189.648,24.531l147.049,48.191v106.131h0Z"/>
  </g>
</svg>
